<svg width="48" height="48" viewBox="0 0 48 48" fill="none" xmlns="http://www.w3.org/2000/svg">
<g clip-path="url(#clip0_124_274)">
<path d="M24 0C19.2532 0 14.6131 1.40758 10.6663 4.04473C6.71952 6.68188 3.64338 10.4302 1.82687 14.8156C0.0103683 19.201 -0.464912 24.0266 0.461134 28.6822C1.38718 33.3377 3.67296 37.6141 7.02942 40.9706C10.3859 44.327 14.6623 46.6128 19.3178 47.5389C23.9734 48.4649 28.799 47.9896 33.1844 46.1731C37.5698 44.3566 41.3181 41.2805 43.9553 37.3337C46.5924 33.3869 48 28.7468 48 24C48 17.6348 45.4714 11.5303 40.9706 7.02944C36.4697 2.52856 30.3652 0 24 0V0ZM30.0821 21.7263L29.6842 25.0705C29.667 25.2257 29.593 25.369 29.4764 25.4729C29.3597 25.5767 29.2088 25.6336 29.0526 25.6326H25.5789V35.5484C25.5798 35.6668 25.5338 35.7807 25.451 35.8653C25.3681 35.9499 25.2552 35.9983 25.1368 36H21.6C21.5411 35.9992 21.483 35.9868 21.4289 35.9635C21.3748 35.9402 21.3258 35.9064 21.2847 35.8642C21.2437 35.822 21.2114 35.7721 21.1896 35.7174C21.1678 35.6626 21.1571 35.6042 21.1579 35.5453L21.1768 25.6326H18.5463C18.3788 25.6326 18.2182 25.5661 18.0997 25.4476C17.9813 25.3292 17.9147 25.1686 17.9147 25.0011V21.66C17.9147 21.4925 17.9813 21.3319 18.0997 21.2134C18.2182 21.095 18.3788 21.0284 18.5463 21.0284H21.1579V17.7884C21.1579 14.04 23.3905 12 26.6526 12H29.3274C29.4949 12 29.6555 12.0665 29.774 12.185C29.8924 12.3034 29.9589 12.4641 29.9589 12.6316V15.4453C29.9589 15.6128 29.8924 15.7734 29.774 15.8919C29.6555 16.0103 29.4949 16.0768 29.3274 16.0768H27.6884C25.9137 16.1053 25.5789 16.9547 25.5789 18.2242V21.0189H29.4695C29.5576 21.021 29.6443 21.0414 29.7241 21.0789C29.8038 21.1164 29.8748 21.1703 29.9325 21.2369C29.9902 21.3035 30.0333 21.3815 30.0591 21.4658C30.0849 21.5501 30.0927 21.6388 30.0821 21.7263V21.7263Z" fill="#FEF2F2"/>
</g>
<defs>
<clipPath id="clip0_124_274">
<rect width="48" height="48" fill="white"/>
</clipPath>
</defs>
</svg>
