<svg width="56" height="56" viewBox="0 0 56 56" fill="none" xmlns="http://www.w3.org/2000/svg">
<path d="M53.912 17.8927L47.787 11.7677C47.3223 11.3028 46.7043 11.0468 46.0469 11.0468H41.8359V2.79902C41.8359 1.25562 40.5803 0 39.0369 0H17.1818C15.6384 0 14.3828 1.25562 14.3828 2.79902V11.0469H9.95312C9.29567 11.0469 8.6777 11.3029 8.21297 11.7677L2.08808 17.8927C1.62323 18.3575 1.36719 18.9755 1.36719 19.6328C1.36719 20.2902 1.62323 20.9081 2.08797 21.3729C2.5527 21.8377 3.17067 22.0938 3.82812 22.0938C4.48558 22.0938 5.10355 21.8377 5.56828 21.373L10.9724 15.9688H14.3828V33.7969H14.3141C12.8443 33.7969 11.6484 34.9927 11.6484 36.4626V38.4362C10.9421 38.7355 10.4453 39.4358 10.4453 40.25C10.4453 41.3355 11.3285 42.2188 12.4141 42.2188H14.3828V48.125H12.3153C11.1334 48.125 10.1719 49.0865 10.1719 50.2684V55.1797C10.1719 55.6327 10.539 56 10.9922 56H45.2266C45.6797 56 46.0469 55.6327 46.0469 55.1797V50.2684C46.0469 49.0865 45.0854 48.125 43.9035 48.125H41.8359V42.2188H43.5859C44.6715 42.2188 45.5547 41.3355 45.5547 40.25C45.5547 39.5232 45.1578 38.8887 44.5703 38.5477V36.4626C44.5703 34.9927 43.3744 33.7969 41.9046 33.7969H41.8359V15.9688H45.0276L50.4317 21.3729C50.8965 21.8377 51.5144 22.0938 52.1719 22.0938C52.8293 22.0938 53.4473 21.8377 53.9119 21.373C54.3768 20.9081 54.6328 20.2902 54.6328 19.6328C54.6328 18.9755 54.3768 18.3575 53.912 17.8927ZM16.0234 2.79902C16.0234 2.16027 16.5431 1.64062 17.1818 1.64062H39.0369C39.6757 1.64062 40.1953 2.16027 40.1953 2.79902V3.64175H16.0234V2.79902ZM16.0234 5.28238H40.1953V6.23438H16.0234V5.28238ZM40.1953 7.875V11.0469H39.1016V7.875H40.1953ZM37.4609 7.875V11.0469H28.9297V7.875H37.4609ZM27.2891 7.875V11.0469H18.7578V7.875H27.2891ZM16.0234 7.875H17.1172V11.0469H16.0234V7.875ZM43.9035 49.7656C44.1806 49.7656 44.4062 49.9913 44.4062 50.2684V54.3594H11.8125V52.203H39.9404C40.3935 52.203 40.7607 51.8358 40.7607 51.3827C40.7607 50.9297 40.3935 50.5624 39.9404 50.5624H11.8125V50.2684C11.8125 49.9912 12.0381 49.7656 12.3153 49.7656H43.9035V49.7656ZM16.0234 48.125V42.2188H17.1172V48.125H16.0234ZM18.7578 48.125V42.2188H21.2734V48.125H18.7578ZM22.9141 48.125V42.2188H33.0859V48.125H22.9141ZM34.7266 48.125V42.2188H37.4609V48.125H34.7266ZM39.1016 48.125V42.2188H40.1953V48.125H39.1016ZM43.9141 40.25C43.9141 40.4309 43.7668 40.5781 43.5859 40.5781H12.4141C12.2332 40.5781 12.0859 40.4309 12.0859 40.25C12.0859 40.0691 12.2332 39.9219 12.4141 39.9219H43.5859C43.7668 39.9219 43.9141 40.0691 43.9141 40.25ZM41.9046 35.4375C42.4699 35.4375 42.9297 35.8973 42.9297 36.4626V38.2812H13.2891V36.4626C13.2891 35.8973 13.7489 35.4375 14.3141 35.4375H41.9046ZM16.0234 33.7969V15.9688H17.1172V33.7969H16.0234ZM31.4856 29.9688C31.8826 29.9688 32.2127 30.2666 32.2536 30.6615L32.5779 33.7969H23.422L23.7463 30.6615C23.7872 30.2666 24.1174 29.9688 24.5143 29.9688H31.4856ZM27.3984 27.7266C27.3984 27.3948 27.6683 27.125 28 27.125C28.3317 27.125 28.6016 27.3948 28.6016 27.7266C28.6016 28.0583 28.3317 28.3281 28 28.3281C27.6683 28.3281 27.3984 28.0583 27.3984 27.7266ZM27.2344 25.6219C26.3745 25.9358 25.7578 26.7594 25.7578 27.7266C25.7578 27.9351 25.7887 28.1364 25.8421 28.3281H24.5144C23.2738 28.3281 22.2422 29.2587 22.1145 30.4928L21.7727 33.7969H18.7578V15.9688H27.2344V25.6219ZM39.1016 33.7969V15.9688H40.1953V33.7969H39.1016ZM52.7519 20.2129C52.597 20.3679 52.391 20.4531 52.1719 20.4531C51.9528 20.4531 51.7467 20.3678 51.5919 20.2128L45.7072 14.3281H35.3709C34.8818 14.3281 34.5044 14.7586 34.5681 15.2435C34.569 15.2505 34.5699 15.2574 34.5708 15.2643C34.6223 15.6675 34.9671 15.9686 35.3736 15.9686H37.4609V33.7968H34.2273L33.8855 30.4925C33.7583 29.2627 32.7219 28.328 31.4856 28.328H30.1579C30.2115 28.1363 30.2422 27.935 30.2422 27.7265C30.2422 26.8004 29.6778 26.0038 28.875 25.6622V15.9688H30.2902C30.7082 15.9688 31.0565 15.6508 31.0963 15.2347C31.097 15.2277 31.0976 15.2208 31.0984 15.2138C31.1456 14.739 30.7694 14.3281 30.2922 14.3281H10.2928L4.40803 20.2129C4.25327 20.3678 4.0472 20.4531 3.82812 20.4531C3.60905 20.4531 3.40298 20.3678 3.248 20.2128C3.08066 20.0455 2.99458 19.8185 3.00945 19.5799C3.02247 19.3724 3.12145 19.1795 3.26856 19.0325L9.37322 12.9278C9.52798 12.7728 9.73405 12.6875 9.95312 12.6875H46.0469C46.266 12.6875 46.472 12.7728 46.6269 12.9278L52.7519 19.0528H52.752C52.9069 19.2078 52.9922 19.4137 52.9922 19.6328C52.9922 19.8519 52.9069 20.0578 52.7519 20.2129Z" fill="#404040"/>
</svg>
