<svg width="48" height="48" viewBox="0 0 48 48" fill="none" xmlns="http://www.w3.org/2000/svg">
<g clip-path="url(#clip0_124_282)">
<path d="M25.8663 23.2577L31.7526 20.002L25.1905 26.962L22.1368 23.703L16.1747 26.962L22.7337 20.002L25.8663 23.2577Z" fill="#FEF2F2"/>
<path d="M24 0C19.2532 0 14.6131 1.40758 10.6663 4.04473C6.71952 6.68188 3.64338 10.4302 1.82687 14.8156C0.0103683 19.201 -0.464912 24.0266 0.461134 28.6822C1.38718 33.3377 3.67296 37.6141 7.02942 40.9706C10.3859 44.327 14.6623 46.6128 19.3178 47.5389C23.9734 48.4649 28.799 47.9896 33.1844 46.1731C37.5698 44.3566 41.3181 41.2805 43.9553 37.3337C46.5924 33.3869 48 28.7468 48 24C48 17.6348 45.4714 11.5303 40.9706 7.02944C36.4697 2.52856 30.3652 0 24 0V0ZM24 34.2253C22.8367 34.2262 21.6788 34.069 20.5579 33.7579L16.4716 36V31.7621C15.101 30.7712 13.9824 29.4722 13.2057 27.9699C12.429 26.4675 12.016 24.8038 12 23.1126C12 16.9737 17.3684 12 24 12C30.6316 12 36 16.9768 36 23.1126C36 29.2484 30.6316 34.2253 24 34.2253V34.2253Z" fill="#FEF2F2"/>
</g>
<defs>
<clipPath id="clip0_124_282">
<rect width="48" height="48" fill="white"/>
</clipPath>
</defs>
</svg>
