<svg width="56" height="56" viewBox="0 0 56 56" fill="none" xmlns="http://www.w3.org/2000/svg">
<path d="M52.9285 47.598L51.0806 42.4238C52.1966 41.0259 52.9368 39.366 53.2312 37.6017C53.5256 35.8373 53.3643 34.027 52.7627 32.3425C52.1611 30.658 51.139 29.1551 49.7936 27.9764C48.4481 26.7977 46.8238 25.9824 45.0747 25.6076L40.6166 13.125H42C44.0879 13.1227 46.0895 12.2922 47.5659 10.8159C49.0422 9.33953 49.8727 7.33786 49.875 5.25V4.375C49.875 3.67881 49.5984 3.01113 49.1062 2.51884C48.6139 2.02656 47.9462 1.75 47.25 1.75C46.5538 1.75 45.8861 2.02656 45.3938 2.51884C44.9016 3.01113 44.625 3.67881 44.625 4.375V5.25C44.6242 5.94595 44.3474 6.61318 43.8553 7.10529C43.3632 7.59741 42.696 7.87422 42 7.875H35.875C35.2351 7.87495 34.6172 8.10865 34.1375 8.53217C33.6578 8.95569 33.3493 9.53985 33.27 10.1748C33.1907 10.8098 33.3461 11.4519 33.707 11.9804C34.0679 12.5088 34.6094 12.8872 35.2297 13.0445L36.8899 17.6929L23.0039 30.2561L15.5831 29.7921L14.929 29.7516C14.9111 29.7505 14.893 29.75 14.875 29.75C14.8081 29.75 14.7418 29.753 14.6753 29.755L10.907 20.125H13.125C13.821 20.1242 14.4882 19.8474 14.9803 19.3553C15.4724 18.8632 15.7492 18.196 15.75 17.5V17.2678C15.7473 16.6367 15.5185 16.0274 15.1049 15.5506C14.6914 15.0738 14.1206 14.7611 13.4962 14.6692L4.74622 13.4191C4.37391 13.3659 3.99452 13.3934 3.63373 13.4996C3.27295 13.6058 2.9392 13.7883 2.65508 14.0347C2.37097 14.2811 2.14312 14.5857 1.98696 14.9278C1.83081 15.27 1.75 15.6417 1.75 16.0177V17.5C1.75078 18.196 2.02759 18.8632 2.51971 19.3553C3.01182 19.8474 3.67905 20.1242 4.375 20.125H5.52781L10.1621 31.9677C9.6254 32.6134 9.22743 33.3628 8.99303 34.1691C8.75863 34.9754 8.69283 35.8214 8.79972 36.6542C8.90662 37.4871 9.18392 38.289 9.61434 39.01C10.0448 39.7309 10.6191 40.3555 11.3015 40.8448L4.21586 47.2552C3.54878 47.2965 2.92247 47.5904 2.46438 48.077C2.00629 48.5637 1.75084 49.2066 1.75 49.875V51.625C1.75078 52.321 2.02759 52.9882 2.51971 53.4803C3.01182 53.9724 3.67905 54.2492 4.375 54.25H6.125C6.82095 54.2492 7.48818 53.9724 7.98029 53.4803C8.47241 52.9882 8.74922 52.321 8.75 51.625H47.25C47.2508 52.321 47.5276 52.9882 48.0197 53.4803C48.5118 53.9724 49.179 54.2492 49.875 54.25H51.625C52.321 54.2492 52.9882 53.9724 53.4803 53.4803C53.9724 52.9882 54.2492 52.321 54.25 51.625V49.875C54.2496 49.4127 54.1273 48.9588 53.8952 48.5589C53.6632 48.1591 53.3297 47.8277 52.9285 47.598ZM49.5141 30.1754C50.7148 31.5742 51.4431 33.3165 51.595 35.1537C51.7469 36.9909 51.3147 38.8292 50.36 40.4062L45.7953 27.6256C47.2359 28.137 48.5178 29.016 49.5141 30.1754ZM50.9459 47.25H49.875C49.6902 47.2501 49.506 47.2696 49.3253 47.3084L37.1166 13.125H38.7583L50.9459 47.25ZM46.2656 43.943C44.3867 44.7316 42.2914 44.8399 40.3412 44.2492C38.3909 43.6586 36.7078 42.4061 35.5821 40.7075L42.9039 40.25C43.5573 40.246 44.2016 40.0954 44.7891 39.8092L46.2656 43.943ZM39.7976 25.8344C37.1494 26.6516 34.9292 28.4782 33.6171 30.9193L30.0394 30.6957L38.6934 22.7428L39.7976 25.8344ZM40.3867 27.4839L41.7962 31.4307L35.5809 31.042C36.7178 29.3309 38.4182 28.072 40.3867 27.4841V27.4839ZM35.875 9.625H42C43.1599 9.6237 44.272 9.16234 45.0922 8.34215C45.9123 7.52196 46.3737 6.40992 46.375 5.25V4.375C46.375 4.14294 46.4672 3.92038 46.6313 3.75628C46.7954 3.59219 47.0179 3.5 47.25 3.5C47.4821 3.5 47.7046 3.59219 47.8687 3.75628C48.0328 3.92038 48.125 4.14294 48.125 4.375V5.25C48.1232 6.87389 47.4773 8.43075 46.329 9.57901C45.1807 10.7273 43.6239 11.3732 42 11.375H35.875C35.6429 11.375 35.4204 11.2828 35.2563 11.1187C35.0922 10.9546 35 10.7321 35 10.5C35 10.2679 35.0922 10.0454 35.2563 9.88128C35.4204 9.71719 35.6429 9.625 35.875 9.625ZM37.5266 19.4766L38.0541 20.9532L27.6176 30.5442L25.4436 30.4082L37.5266 19.4766ZM3.5 17.5V16.0177C3.5 15.7864 3.59161 15.5645 3.75481 15.4005C3.91801 15.2365 4.1395 15.1438 4.37084 15.1427C4.41362 15.1428 4.45635 15.1458 4.4987 15.1518L13.2487 16.4019C13.4568 16.4325 13.6471 16.5368 13.785 16.6957C13.9228 16.8546 13.9991 17.0577 14 17.2681V17.5C13.9997 17.732 13.9075 17.9544 13.7434 18.1184C13.5794 18.2825 13.357 18.3747 13.125 18.375H4.375C4.14302 18.3747 3.92061 18.2825 3.75657 18.1184C3.59253 17.9544 3.50026 17.732 3.5 17.5ZM9.02781 20.125L12.9201 30.0718C12.4402 30.2339 11.9824 30.4552 11.5572 30.7305L7.40698 20.125H9.02781ZM10.5 35.875C10.5013 34.7195 10.9591 33.6114 11.7737 32.7919C12.5883 31.9725 13.6937 31.5081 14.8492 31.5L42.4368 33.2243L44.1934 38.1428C43.7933 38.3765 43.3383 38.4997 42.875 38.5C42.8568 38.5 42.8386 38.5 42.8203 38.5017L18.1305 40.0451L16.8231 37.6323C17.2363 37.173 17.4738 36.5825 17.4938 35.965C17.5137 35.3475 17.3148 34.7428 16.9321 34.2578C16.5495 33.7728 16.0077 33.4386 15.4026 33.3143C14.7974 33.19 14.1678 33.2836 13.6249 33.5785C13.0821 33.8734 12.6609 34.3507 12.4358 34.9261C12.2108 35.5014 12.1963 36.1378 12.395 36.7228C12.5937 37.3078 12.9927 37.8037 13.5216 38.123C14.0505 38.4423 14.6752 38.5644 15.2854 38.4677L16.2053 40.1656L15.475 40.2112L14.8492 40.25C13.6937 40.2419 12.5883 39.7775 11.7737 38.9581C10.9591 38.1386 10.5013 37.0305 10.5 35.875ZM14.875 36.75C14.7019 36.75 14.5328 36.6987 14.3889 36.6025C14.245 36.5064 14.1328 36.3697 14.0666 36.2098C14.0004 36.05 13.9831 35.874 14.0168 35.7043C14.0506 35.5346 14.1339 35.3787 14.2563 35.2563C14.3787 35.1339 14.5346 35.0506 14.7043 35.0168C14.874 34.9831 15.05 35.0004 15.2098 35.0666C15.3697 35.1328 15.5064 35.245 15.6025 35.3889C15.6987 35.5328 15.75 35.7019 15.75 35.875C15.7497 36.107 15.6575 36.3294 15.4934 36.4934C15.3294 36.6575 15.107 36.7497 14.875 36.75ZM14.875 42C14.893 42 14.9111 42 14.929 41.9984L15.1697 41.9834L8.25234 48.3398C7.88687 47.8337 7.35335 47.4741 6.74713 47.3251L12.9706 41.6952C13.5852 41.8971 14.228 42 14.875 42ZM7 51.625C6.99974 51.857 6.90747 52.0794 6.74343 52.2434C6.57939 52.4075 6.35698 52.4997 6.125 52.5H4.375C4.14302 52.4997 3.92061 52.4075 3.75657 52.2434C3.59253 52.0794 3.50026 51.857 3.5 51.625V49.875C3.50026 49.643 3.59253 49.4206 3.75657 49.2566C3.92061 49.0925 4.14302 49.0003 4.375 49H6.125C6.35698 49.0003 6.57939 49.0925 6.74343 49.2566C6.90747 49.4206 6.99974 49.643 7 49.875V51.625ZM9.16814 49.875L17.3783 42.3302L18.2751 43.9848L17.5062 44.4017C17.4041 44.4558 17.3137 44.5296 17.2403 44.6189C17.1668 44.7082 17.1118 44.8111 17.0784 44.9217C17.045 45.0324 17.0338 45.1486 17.0455 45.2636C17.0572 45.3786 17.0916 45.4901 17.1467 45.5917C17.2018 45.6934 17.2765 45.7831 17.3664 45.8557C17.4564 45.9283 17.5598 45.9823 17.6708 46.0147C17.7818 46.0471 17.898 46.0572 18.0129 46.0444C18.1278 46.0316 18.239 45.9962 18.3401 45.9401L21.4172 44.2723C21.5193 44.2181 21.6097 44.1443 21.6831 44.055C21.7566 43.9658 21.8116 43.8628 21.845 43.7522C21.8784 43.6415 21.8896 43.5253 21.8779 43.4103C21.8661 43.2953 21.8317 43.1838 21.7767 43.0822C21.7216 42.9806 21.6469 42.8909 21.557 42.8183C21.467 42.7457 21.3636 42.6916 21.2526 42.6592C21.1416 42.6268 21.0254 42.6167 20.9105 42.6295C20.7956 42.6423 20.6844 42.6778 20.5833 42.7338L19.8136 43.151L19.0495 41.7408L33.6189 40.8302C34.8453 43.1206 36.877 44.8751 39.3216 45.7547C41.7662 46.6343 44.45 46.5767 46.8545 45.5929L47.8074 48.261C47.4459 48.7213 47.2496 49.2897 47.25 49.875H9.16814ZM52.5 51.625C52.4997 51.857 52.4075 52.0794 52.2434 52.2434C52.0794 52.4075 51.857 52.4997 51.625 52.5H49.875C49.643 52.4997 49.4206 52.4075 49.2566 52.2434C49.0925 52.0794 49.0003 51.857 49 51.625V49.875C49.0003 49.643 49.0925 49.4206 49.2566 49.2566C49.4206 49.0925 49.643 49.0003 49.875 49H51.625C51.857 49.0003 52.0794 49.0925 52.2434 49.2566C52.4075 49.4206 52.4997 49.643 52.5 49.875V51.625Z" fill="#404040"/>
</svg>
