<svg width="56" height="56" viewBox="0 0 56 56" fill="none" xmlns="http://www.w3.org/2000/svg">
<path d="M37.9355 50.5807V46.9678H18.0645V50.5807H16.2581V56H39.7419V50.5807H37.9355ZM19.871 48.7742H36.129V50.5807H19.871V48.7742ZM37.9355 54.1936H18.0645V52.3871H37.9355V54.1936Z" fill="#404040"/>
<path d="M53.2903 29.8065H37.0323H36.129H22.5806V25.3057C22.5806 23.2996 21.2339 21.5139 19.3046 20.963L16.2581 20.0932V19.3832C17.1459 18.5857 17.7683 17.5036 17.9796 16.2788C19.7545 14.9041 20.7742 12.9468 20.7742 10.8387C20.7742 9.65097 20.4445 8.53277 19.871 7.54374V7.22581C19.871 3.24168 16.6293 0 12.6452 0C8.66103 0 5.41935 3.24168 5.41935 7.22581V7.54374C4.84581 8.53277 4.51613 9.65097 4.51613 10.8387C4.51613 12.9468 5.53587 14.9041 7.31071 16.2779C7.52206 17.5027 8.14439 18.5857 9.03226 19.3823V20.0923L5.98568 20.963C4.05639 21.5139 2.70968 23.2996 2.70968 25.3057V29.8065H0V35.2258H1.80645V53.2903C1.80645 54.7843 3.02219 56 4.51613 56H14.4516V35.2258H18.0645V45.1613H19.871V35.2258H22.5806V45.1613H24.3871V35.2258H28V45.1613H29.8065V35.2258H32.5161V45.1613H34.3226V35.2258H36.129V43.3548C36.129 44.8488 37.3448 46.0645 38.8387 46.0645C40.3326 46.0645 41.5484 44.8488 41.5484 43.3548V37.9355C41.5484 37.4369 41.953 37.0323 42.4516 37.0323C42.9502 37.0323 43.3548 37.4369 43.3548 37.9355V40.6452C43.3548 42.1391 44.5706 43.3548 46.0645 43.3548C47.5585 43.3548 48.7742 42.1391 48.7742 40.6452V36.129C48.7742 35.6305 49.1788 35.2258 49.6774 35.2258C50.176 35.2258 50.5806 35.6305 50.5806 36.129V47.871C50.5806 49.047 51.3385 50.0405 52.3871 50.4145V53.2903C52.3871 53.7889 51.9825 54.1935 51.4839 54.1935H48.7742V45.1613H46.9677V54.1935H43.3548V47.871H41.5484V56H51.4839C52.9778 56 54.1935 54.7843 54.1935 53.2903V50.4145C55.2422 50.0405 56 49.047 56 47.871V32.5161C56 31.0222 54.7843 29.8065 53.2903 29.8065ZM16.2581 15.3548C16.2581 17.3474 14.6377 18.9677 12.6452 18.9677C10.6526 18.9677 9.03226 17.3474 9.03226 15.3548V12.7427C9.96348 12.7707 11.4068 12.6217 13.011 11.8332L13.2837 11.7121C14.5239 12.32 15.5535 12.5458 16.2581 12.6226V15.3548ZM12.6452 1.80645C14.9014 1.80645 16.8379 3.1929 17.6526 5.15832C16.2707 4.19368 14.5347 3.6129 12.6452 3.6129C10.7556 3.6129 9.01961 4.19368 7.63768 5.15832C8.45239 3.1929 10.3889 1.80645 12.6452 1.80645ZM8.34761 10.8658L7.22581 10.5849V13.6234C6.64232 12.7924 6.32258 11.835 6.32258 10.8387C6.32258 7.84994 9.15961 5.41935 12.6452 5.41935C16.1307 5.41935 18.9677 7.84994 18.9677 10.8387C18.9677 11.8377 18.6462 12.7978 18.06 13.6306L18.0519 10.7285L17.0448 10.8459C17.0195 10.8505 14.2114 11.1277 10.5741 7.49045L9.2969 8.76761C10.0186 9.48929 10.7168 10.0782 11.3815 10.5587C9.65729 11.1585 8.40361 10.8775 8.34761 10.8658ZM4.51613 25.3057C4.51613 24.1017 5.32452 23.0305 6.48155 22.6999L10.8387 21.4552V20.4581C11.405 20.6595 12.0111 20.7742 12.6452 20.7742C13.2792 20.7742 13.8853 20.6586 14.4516 20.4581V21.4552L18.8088 22.6999C19.9658 23.0314 20.7742 24.1026 20.7742 25.3057V29.8065H18.0645V24.3871H7.22581V29.8065H4.51613V25.3057ZM16.2581 26.1935V29.8065H9.03226V26.1935H16.2581ZM7.22581 54.1935H4.51613C4.01755 54.1935 3.6129 53.7889 3.6129 53.2903V35.2258H7.22581V54.1935ZM12.6452 54.1935H9.03226V35.2258H12.6452V54.1935ZM36.129 33.4194H1.80645V31.6129H36.129V33.4194ZM54.1935 47.871C54.1935 48.3695 53.7889 48.7742 53.2903 48.7742C52.7917 48.7742 52.3871 48.3695 52.3871 47.871V36.129C52.3871 34.6351 51.1714 33.4194 49.6774 33.4194C48.1835 33.4194 46.9677 34.6351 46.9677 36.129V40.6452C46.9677 41.1437 46.5631 41.5484 46.0645 41.5484C45.5659 41.5484 45.1613 41.1437 45.1613 40.6452V37.9355C45.1613 36.4415 43.9455 35.2258 42.4516 35.2258C40.9577 35.2258 39.7419 36.4415 39.7419 37.9355V43.3548C39.7419 43.8534 39.3373 44.2581 38.8387 44.2581C38.3401 44.2581 37.9355 43.8534 37.9355 43.3548V31.6129H53.2903C53.7889 31.6129 54.1935 32.0175 54.1935 32.5161V47.871Z" fill="#404040"/>
<path d="M52.0782 10.1631C53.0203 9.33841 54.1936 8.31234 54.1936 6.32254V5.41931H52.3871V6.32254C52.3871 7.43802 51.8452 7.96551 50.8896 8.8028C49.9475 9.62654 48.7742 10.6526 48.7742 12.6424C48.7742 14.6331 49.9466 15.6592 50.8896 16.4838C51.8452 17.3211 52.3871 17.8495 52.3871 18.9668C52.3871 20.0832 51.8452 20.6116 50.8896 21.4489C49.9466 22.2735 48.7742 23.2996 48.7742 25.2903V26.1935H50.5807V25.2903C50.5807 24.173 51.1226 23.6455 52.0782 22.8073C53.0212 21.9827 54.1936 20.9575 54.1936 18.9668C54.1936 16.9761 53.0212 15.95 52.0782 15.1254C51.1226 14.2872 50.5807 13.7588 50.5807 12.6424C50.5807 11.5269 51.1226 10.9994 52.0782 10.1631Z" fill="#404040"/>
<path d="M41.2395 4.74374C42.1815 3.9191 43.3548 2.89303 43.3548 0.903226V0H41.5484V0.903226C41.5484 2.01871 41.0064 2.54619 40.0508 3.38348C39.1088 4.20723 37.9355 5.23329 37.9355 7.2231C37.9355 9.21381 39.1079 10.2399 40.0508 11.0645C41.0064 11.9018 41.5484 12.4302 41.5484 13.5475C41.5484 14.6639 41.0064 15.1923 40.0508 16.0295C39.1079 16.8542 37.9355 17.8803 37.9355 19.871V20.7742H39.7419V19.871C39.7419 18.7537 40.2839 18.2262 41.2395 17.388C42.1825 16.5634 43.3548 15.5382 43.3548 13.5475C43.3548 11.5568 42.1825 10.5307 41.2395 9.70606C40.2839 8.86787 39.7419 8.33948 39.7419 7.2231C39.7419 6.10761 40.2839 5.58013 41.2395 4.74374Z" fill="#404040"/>
<path d="M30.4008 10.1631C31.3428 9.33841 32.5161 8.31234 32.5161 6.32254V5.41931H30.7097V6.32254C30.7097 7.43802 30.1677 7.96551 29.2121 8.8028C28.2701 9.62654 27.0968 10.6526 27.0968 12.6424C27.0968 14.6331 28.2692 15.6592 29.2121 16.4838C30.1677 17.3211 30.7097 17.8495 30.7097 18.9668C30.7097 20.0832 30.1677 20.6116 29.2121 21.4489C28.2692 22.2735 27.0968 23.2996 27.0968 25.2903V26.1935H28.9032V25.2903C28.9032 24.173 29.4452 23.6455 30.4008 22.8073C31.3437 21.9827 32.5161 20.9575 32.5161 18.9668C32.5161 16.9761 31.3437 15.95 30.4008 15.1254C29.4452 14.2872 28.9032 13.7588 28.9032 12.6424C28.9032 11.5269 29.4452 10.9994 30.4008 10.1631Z" fill="#404040"/>
</svg>
