<svg width="56" height="56" viewBox="0 0 56 56" fill="none" xmlns="http://www.w3.org/2000/svg">
<path d="M39.7009 30.9444C39.6506 30.8941 39.5948 30.8482 39.5347 30.8088C39.4756 30.7694 39.4122 30.7355 39.3455 30.7082C39.28 30.6808 39.211 30.6601 39.1409 30.6458C38.9998 30.6174 38.8545 30.6174 38.7145 30.6458C38.6444 30.6601 38.5755 30.6808 38.5089 30.7082C38.4431 30.7355 38.3797 30.7694 38.3206 30.8088C38.2605 30.8482 38.2047 30.8941 38.1544 30.9444C37.9508 31.1479 37.8339 31.4301 37.8339 31.7177C37.8339 31.7899 37.8415 31.861 37.8546 31.9321C37.8688 32.0021 37.8907 32.071 37.918 32.1366C37.9454 32.2022 37.9782 32.2657 38.0175 32.3258C38.058 32.3849 38.104 32.4407 38.1543 32.4921C38.2046 32.5424 38.2604 32.5872 38.3205 32.6277C38.3796 32.6671 38.443 32.701 38.5087 32.7283C38.5754 32.7557 38.6443 32.7765 38.7144 32.7907C38.7843 32.8049 38.8566 32.8126 38.9277 32.8126C38.9988 32.8126 39.0709 32.8049 39.141 32.7907C39.2112 32.7765 39.28 32.7557 39.3456 32.7283C39.4123 32.701 39.4757 32.6671 39.5348 32.6277C39.595 32.5872 39.6507 32.5424 39.701 32.4921C39.7514 32.4407 39.7973 32.3849 39.8367 32.3258C39.876 32.2657 39.91 32.2022 39.9373 32.1366C39.9646 32.071 39.9865 32.0021 39.9996 31.9321C40.0139 31.861 40.0215 31.7899 40.0215 31.7177C40.0215 31.4301 39.9044 31.1479 39.7009 30.9444Z" fill="#404040"/>
<path d="M34.7714 30.6244H17.0724C16.4684 30.6244 15.9787 31.1141 15.9787 31.7181C15.9787 32.3222 16.4684 32.8119 17.0724 32.8119H34.7714C35.3755 32.8119 35.8652 32.3222 35.8652 31.7181C35.8652 31.1141 35.3754 30.6244 34.7714 30.6244Z" fill="#404040"/>
<path d="M18.1453 36.0041C18.1311 35.9341 18.1103 35.8652 18.083 35.7995C18.0556 35.7328 18.0217 35.6694 17.9823 35.6103C17.9419 35.5502 17.8959 35.4944 17.8456 35.4441C17.7953 35.3938 17.7395 35.3478 17.6794 35.3073C17.6203 35.2691 17.5569 35.2352 17.4912 35.2078C17.4245 35.1805 17.3556 35.1586 17.2856 35.1455C17.1445 35.117 17.0002 35.117 16.8591 35.1455C16.7891 35.1586 16.7202 35.1805 16.6545 35.2078C16.5878 35.2352 16.5244 35.2691 16.4653 35.3073C16.4052 35.3478 16.3494 35.3938 16.2991 35.4441C16.2487 35.4944 16.2028 35.5502 16.1634 35.6103C16.1241 35.6694 16.0902 35.7328 16.0628 35.7995C16.0355 35.8652 16.0147 35.9341 16.0005 36.0041C15.9862 36.0741 15.9786 36.1463 15.9786 36.2173C15.9786 36.2884 15.9862 36.3606 16.0005 36.4306C16.0147 36.5006 16.0355 36.5695 16.0628 36.6352C16.0902 36.7019 16.1241 36.7653 16.1634 36.8244C16.2028 36.8845 16.2487 36.9403 16.2991 36.9906C16.3494 37.0409 16.4052 37.0869 16.4653 37.1263C16.5244 37.1656 16.5878 37.1995 16.6545 37.2269C16.7202 37.2542 16.7891 37.275 16.8591 37.2892C16.9291 37.3034 17.0012 37.3111 17.0723 37.3111C17.1434 37.3111 17.2156 37.3034 17.2856 37.2892C17.3556 37.275 17.4245 37.2542 17.4912 37.2269C17.5569 37.1995 17.6203 37.1656 17.6794 37.1263C17.7395 37.0869 17.7953 37.0409 17.8456 36.9906C18.0491 36.7872 18.1661 36.505 18.1661 36.2173C18.1661 36.1463 18.1595 36.0741 18.1453 36.0041Z" fill="#404040"/>
<path d="M38.9275 35.1235H21.2286C20.6245 35.1235 20.1348 35.6132 20.1348 36.2173C20.1348 36.8214 20.6245 37.311 21.2286 37.311H38.9275C39.5316 37.311 40.0213 36.8214 40.0213 36.2173C40.0213 35.6132 39.5315 35.1235 38.9275 35.1235Z" fill="#404040"/>
<path d="M46.5842 6.82806H39.3058C39.1603 6.39472 38.7509 6.08256 38.2687 6.08256H33.9791C33.9796 6.04833 33.98 6.0142 33.98 5.97997C33.98 2.68253 31.2973 0 28 0C24.7027 0 22.02 2.68253 22.02 5.97986C22.02 6.01409 22.0202 6.04822 22.0209 6.08245H17.7313C17.249 6.08245 16.8397 6.39461 16.6942 6.82795H9.41576C7.70711 6.82795 6.31706 8.218 6.31706 9.92666V52.9012C6.31706 54.6098 7.70711 56 9.41576 56H46.5842C48.2929 56 49.6829 54.61 49.6829 52.9012V9.92677C49.6829 8.21811 48.2929 6.82806 46.5842 6.82806ZM23.2614 8.27006C23.5986 8.27006 23.9168 8.11464 24.1241 7.84864C24.3313 7.58264 24.4044 7.23614 24.322 6.90922C24.246 6.60723 24.2075 6.29453 24.2075 5.97986C24.2075 3.88872 25.9089 2.1875 28 2.1875C30.0911 2.1875 31.7925 3.88872 31.7925 5.97986C31.7925 6.29453 31.7539 6.60734 31.6779 6.90933C31.5956 7.23625 31.6688 7.58286 31.876 7.84864C32.0833 8.11453 32.4016 8.26995 32.7387 8.26995H37.175V12.2054H18.8252V8.27006H23.2614V8.27006ZM17.7313 14.393H38.2687C38.8419 14.393 39.3122 13.9519 39.3586 13.3905H43.1204V40.3861H20.8427C20.2386 40.3861 19.749 40.8757 19.749 41.4798V46.0054C19.749 46.6095 20.2386 47.0992 20.8427 47.0992H34.0692V49.4375H12.8796V13.3906H16.6414C16.6878 13.9519 17.158 14.393 17.7313 14.393ZM43.1204 44.1205V49.4375H37.8034L43.1204 44.1205ZM36.2566 47.8907V42.5737H41.5736L36.2566 47.8907ZM34.0692 42.5737V44.9118H34.0691H21.9365V42.5737H34.0692ZM46.5842 53.8125H9.41576C8.9133 53.8125 8.50456 53.4038 8.50456 52.9012V9.92677C8.50456 9.4243 8.9133 9.01556 9.41576 9.01556H16.6376V11.2031H11.7858C11.1817 11.2031 10.6921 11.6927 10.6921 12.2968V50.5312C10.6921 51.1353 11.1817 51.625 11.7858 51.625H44.2142C44.8181 51.625 45.3079 51.1353 45.3079 50.5312V41.477C45.3079 41.4764 45.3079 41.4759 45.3079 41.4752V12.2968C45.3079 11.6927 44.8181 11.2031 44.2142 11.2031H39.3624V9.01556H46.5842C47.0867 9.01556 47.4954 9.4243 47.4954 9.92677V52.9012C47.4954 53.4037 47.0867 53.8125 46.5842 53.8125Z" fill="#404040"/>
<path d="M39.4627 19.0531H37.4894V18.1293C37.4894 17.5252 36.9996 17.0355 36.3956 17.0355H32.5627C31.9587 17.0355 31.4689 17.5252 31.4689 18.1293V21.6328H24.5311V18.1293C24.5311 17.5252 24.0414 17.0355 23.4373 17.0355H19.6044C19.0003 17.0355 18.5106 17.5252 18.5106 18.1293V19.0531H16.5372C15.9331 19.0531 15.4434 19.5427 15.4434 20.1468V25.3061C15.4434 25.9102 15.9331 26.3999 16.5372 26.3999H18.5106V27.3238C18.5106 27.9279 19.0003 28.4175 19.6044 28.4175H23.4372C24.0413 28.4175 24.531 27.9279 24.531 27.3238V23.8203H31.4688V27.3238C31.4688 27.9279 31.9586 28.4175 32.5626 28.4175H36.3955C36.9995 28.4175 37.4893 27.9279 37.4893 27.3238V26.3999H39.4627C40.0667 26.3999 40.5565 25.9102 40.5565 25.3061V20.1468C40.5565 19.5427 40.0667 19.0531 39.4627 19.0531ZM18.5106 24.2124H17.6309V21.2406H18.5106V24.2124ZM20.6981 26.23V19.223H22.3435V26.23H20.6981ZM35.3019 26.23H33.6564V19.223H35.3019V26.23ZM38.3691 24.2124H37.4894V21.2406H38.3691V24.2124Z" fill="#404040"/>
</svg>
