<svg width="48" height="48" viewBox="0 0 48 48" fill="none" xmlns="http://www.w3.org/2000/svg">
<g clip-path="url(#clip0_124_278)">
<path d="M24 0C19.2532 0 14.6131 1.40758 10.6663 4.04473C6.71952 6.68188 3.64338 10.4302 1.82687 14.8156C0.0103683 19.201 -0.464912 24.0266 0.461134 28.6822C1.38718 33.3377 3.67296 37.6141 7.02942 40.9706C10.3859 44.327 14.6623 46.6128 19.3178 47.5389C23.9734 48.4649 28.799 47.9896 33.1844 46.1731C37.5698 44.3566 41.3181 41.2805 43.9553 37.3337C46.5924 33.3869 48 28.7468 48 24C48 17.6348 45.4714 11.5303 40.9706 7.02944C36.4697 2.52856 30.3652 0 24 0V0ZM35.9526 16.7368C35.3853 17.589 34.6922 18.3503 33.8968 18.9947C33.7966 19.0783 33.7162 19.1832 33.6616 19.3017C33.6069 19.4203 33.5794 19.5495 33.5811 19.68V19.7589C33.5718 21.4703 33.2574 23.1664 32.6526 24.7674C32.0295 26.4477 31.1037 27.9997 29.9211 29.3463C28.3318 31.1555 26.2874 32.5064 24 33.2589C22.4969 33.7468 20.9255 33.9909 19.3453 33.9821C16.8383 33.9818 14.3761 33.3183 12.2084 32.0589C12.1307 32.0148 12.0696 31.9465 12.0343 31.8644C11.9989 31.7823 11.9913 31.691 12.0126 31.6042C12.0345 31.5188 12.0843 31.4432 12.1541 31.3894C12.2239 31.3356 12.3097 31.3067 12.3979 31.3074H12.9979C14.9028 31.3107 16.7655 30.7455 18.3474 29.6842C17.405 29.5303 16.5233 29.1197 15.799 28.4974C15.0748 27.8752 14.5361 27.0653 14.2421 26.1568C14.2271 26.1114 14.2243 26.0627 14.2342 26.0158C14.244 25.9689 14.2661 25.9255 14.2982 25.8899C14.3303 25.8543 14.3712 25.8278 14.4168 25.8131C14.4624 25.7984 14.5111 25.7961 14.5579 25.8063C14.8453 25.8604 15.137 25.8879 15.4295 25.8884H15.54C14.6289 25.4703 13.8586 24.7971 13.3222 23.9502C12.7859 23.1034 12.5065 22.1192 12.5179 21.1168C12.5182 21.0699 12.5307 21.0239 12.5541 20.9833C12.5775 20.9426 12.611 20.9087 12.6514 20.8849C12.6917 20.861 12.7376 20.848 12.7845 20.8472C12.8314 20.8463 12.8777 20.8576 12.9189 20.88C13.2894 21.0868 13.6869 21.241 14.1 21.3379C13.2843 20.5303 12.7595 19.4749 12.6081 18.3371C12.4567 17.1993 12.687 16.0433 13.2631 15.0505C13.2853 15.0126 13.3162 14.9806 13.3534 14.9572C13.3906 14.9339 13.4329 14.9199 13.4767 14.9165C13.5205 14.9131 13.5644 14.9203 13.6048 14.9376C13.6451 14.9549 13.6807 14.9817 13.7084 15.0158C14.8501 16.4265 16.263 17.594 17.8636 18.4494C19.4642 19.3047 21.2201 19.8306 23.0274 19.9958H23.0526C23.0792 19.995 23.1053 19.9889 23.1294 19.9777C23.1535 19.9665 23.1751 19.9505 23.1928 19.9307C23.2105 19.9109 23.224 19.8877 23.2325 19.8625C23.241 19.8373 23.2443 19.8107 23.2421 19.7842C23.1718 19.1505 23.2124 18.5093 23.3621 17.8895C23.5659 17.047 23.9841 16.2715 24.5762 15.6385C25.1683 15.0055 25.914 14.5364 26.741 14.2768C27.2716 14.1111 27.8241 14.0259 28.38 14.0242C29.6404 14.0228 30.8579 14.4821 31.8032 15.3158C31.9256 15.4254 32.0841 15.486 32.2484 15.4863C32.3017 15.4852 32.3547 15.4778 32.4063 15.4642C33.2939 15.2395 34.1447 14.8886 34.9326 14.4221C34.9797 14.393 35.0347 14.3793 35.0899 14.3826C35.1452 14.386 35.198 14.4064 35.2412 14.441C35.2845 14.4755 35.3159 14.5226 35.3313 14.5758C35.3468 14.6289 35.3454 14.6856 35.3274 14.7379C35.0646 15.5646 34.5963 16.311 33.9663 16.9074C34.5342 16.7735 35.0883 16.5864 35.6211 16.3484C35.6733 16.3288 35.7303 16.3258 35.7844 16.3397C35.8384 16.3536 35.8868 16.3839 35.9231 16.4263C35.9593 16.4688 35.9816 16.5214 35.9869 16.5769C35.9922 16.6325 35.9802 16.6883 35.9526 16.7368V16.7368Z" fill="#FEF2F2"/>
</g>
<defs>
<clipPath id="clip0_124_278">
<rect width="48" height="48" fill="white"/>
</clipPath>
</defs>
</svg>
