<svg width="56" height="56" viewBox="0 0 56 56" fill="none" xmlns="http://www.w3.org/2000/svg">
<g clip-path="url(#clip0_123_18)">
<path d="M35.5892 30.982L30.3182 28.5484C27.1145 27.0679 23.0638 28.6347 20.1378 32.1079L15.5377 29.5937C14.5168 29.1189 13.0795 29.988 12.397 31.4604C12.0658 32.1424 11.9459 32.9078 12.0528 33.6584C12.0811 33.9443 12.1779 34.2192 12.3351 34.4597C12.4923 34.7002 12.7053 34.8991 12.9558 35.0397L17.2153 37.373C15.4525 42.6907 16.7755 48.0095 20.531 49.7397L25.8008 52.1722C26.6269 52.552 27.526 52.7467 28.4352 52.7427C29.9507 52.7076 31.4287 52.2642 32.7133 51.4594C35.1538 49.9245 37.0783 47.6936 38.2387 45.0544C40.9372 39.2199 39.7483 32.9 35.5892 30.982ZM13.8238 33.5265C13.8019 33.4754 13.7866 33.4217 13.7783 33.3667C13.7343 32.9661 13.8059 32.5612 13.9848 32.2C14.1487 31.7759 14.4631 31.427 14.868 31.22L19.075 33.5219C18.6236 34.2041 18.2243 34.9193 17.8803 35.6615C17.871 35.6837 17.8628 35.7059 17.8523 35.728L13.8238 33.5265ZM19.4693 36.4C21.763 31.4335 26.299 28.6265 29.5855 30.1409L30.877 30.7382C30.1061 30.9635 29.3668 31.2853 28.6767 31.696C26.2362 33.2304 24.3117 35.461 23.1513 38.0999C21.8955 40.6951 21.4453 43.6069 21.8587 46.4602C21.9948 47.2515 22.23 48.0225 22.5587 48.755L21.2753 48.16C17.9818 46.6387 17.1757 41.363 19.4693 36.4ZM36.6508 44.3334C35.6383 46.6504 33.9563 48.6119 31.8208 49.966C31.0593 50.4974 30.1783 50.8325 29.2562 50.9416C28.334 51.0507 27.3992 50.9304 26.5347 50.5914C25.716 50.1523 25.0184 49.5179 24.5037 48.7446C23.989 47.9712 23.6731 47.0827 23.5842 46.158C23.2295 43.6541 23.6317 41.1014 24.7392 38.8279C25.7511 36.5105 27.4332 34.5488 29.5692 33.1952C30.5843 32.5546 31.7527 32.1981 32.9525 32.1627C33.6072 32.1588 34.2549 32.2973 34.8507 32.5687C38.1383 34.0865 38.9445 39.3622 36.6508 44.3334Z" fill="#404040"/>
<path d="M14.5367 41.4225C13.8569 41.7725 13.1089 41.9698 12.345 42.0006C11.581 42.0315 10.8196 41.8951 10.1138 41.601C8.2145 40.7236 7.05833 38.4801 7.02217 35.5985C7.0191 35.3684 6.92556 35.1489 6.7618 34.9873C6.59803 34.8257 6.37722 34.7351 6.14717 34.7351H6.1355C6.02059 34.7367 5.90711 34.7608 5.80153 34.8062C5.69595 34.8516 5.60034 34.9173 5.52017 34.9996C5.44 35.082 5.37684 35.1793 5.33429 35.2861C5.29173 35.3928 5.27062 35.5069 5.27217 35.6218C5.27523 37.05 5.57395 38.4622 6.1495 39.7693L4.84283 39.1673C4.02416 38.7281 3.32647 38.0937 2.8116 37.3204C2.29673 36.5471 1.98058 35.6587 1.89117 34.734C1.53742 32.23 1.94003 29.6774 3.04733 27.4038C4.05965 25.0866 5.74169 23.1251 7.87733 21.7711C8.63906 21.2407 9.51971 20.9061 10.4415 20.7968C11.3632 20.6876 12.2977 20.807 13.1623 21.1446C13.1798 21.1534 13.1977 21.1612 13.216 21.168L14.4842 21.7513C12.7509 22.3688 11.1658 23.3415 9.83042 24.6072C8.49501 25.8729 7.43875 27.4036 6.72933 29.1013C6.21953 30.1987 5.83521 31.3501 5.58367 32.5336C5.53561 32.7606 5.57966 32.9973 5.70611 33.1918C5.83256 33.3863 6.03107 33.5226 6.258 33.5708C6.31825 33.5833 6.37963 33.5896 6.44117 33.5895C6.64152 33.5892 6.8357 33.5201 6.99117 33.3937C7.14665 33.2673 7.25397 33.0914 7.29517 32.8953C7.52015 31.8402 7.86297 30.8137 8.31717 29.8351C10.6108 24.8698 15.148 22.0558 18.4333 23.5771C19.2878 24.0401 20.0106 24.7126 20.5339 25.5316C21.0571 26.3505 21.3637 27.289 21.4247 28.259C21.4411 28.3727 21.4797 28.4821 21.5384 28.581C21.5971 28.6798 21.6746 28.7661 21.7667 28.8349C21.8587 28.9038 21.9634 28.9538 22.0747 28.9822C22.1861 29.0106 22.302 29.0168 22.4157 29.0004C22.5295 28.984 22.6389 28.9454 22.7377 28.8867C22.8366 28.828 22.9229 28.7504 22.9917 28.6584C23.0606 28.5664 23.1106 28.4617 23.139 28.3503C23.1674 28.2389 23.1736 28.1231 23.1572 28.0093C23.0522 26.7511 22.6315 25.5397 21.934 24.4872C21.2366 23.4348 20.285 22.5752 19.1672 21.9881L13.8985 19.5533C13.8795 19.5442 13.86 19.536 13.8402 19.5288C12.7245 19.0814 11.5161 18.9145 10.321 19.0426C9.1258 19.1708 7.98029 19.5901 6.98483 20.2638C4.54469 21.7985 2.6202 24.029 1.4595 26.6676C-1.239 32.5185 -0.051333 38.836 4.109 40.7575L9.38 43.19C10.2033 43.566 11.0987 43.7579 12.0038 43.7523C13.1259 43.7393 14.2325 43.49 15.2518 43.0208C15.4638 42.926 15.6294 42.7508 15.7122 42.5339C15.795 42.317 15.7883 42.076 15.6934 41.8641C15.5986 41.6521 15.4234 41.4865 15.2065 41.4037C14.9896 41.3209 14.7486 41.3276 14.5367 41.4225Z" fill="#404040"/>
<path d="M41.1355 35.6557C40.9034 35.6584 40.682 35.7533 40.5199 35.9194C40.3577 36.0854 40.2682 36.3091 40.271 36.5411C40.2738 36.7732 40.3686 36.9947 40.5347 37.1568C40.7008 37.3189 40.9244 37.4084 41.1565 37.4056H41.1833C42.3238 37.3771 43.4356 37.0425 44.4024 36.4369C45.3691 35.8312 46.1553 34.9768 46.6785 33.9631C47.2018 32.9493 47.4428 31.8136 47.3765 30.6747C47.3102 29.5358 46.9389 28.4357 46.3015 27.4896C45.6641 26.5434 44.7841 25.786 43.7536 25.2967C42.7231 24.8074 41.5799 24.6041 40.4439 24.7082C39.3078 24.8122 38.2206 25.2198 37.2961 25.8882C36.3717 26.5566 35.6439 27.4613 35.189 28.5075C35.0962 28.7202 35.0917 28.9611 35.1764 29.1772C35.2612 29.3932 35.4284 29.5667 35.6411 29.6596C35.8538 29.7524 36.0947 29.7569 36.3108 29.6721C36.5268 29.5873 36.7003 29.4202 36.7932 29.2075C37.1229 28.449 37.6504 27.7931 38.3205 27.3085C38.9907 26.8239 39.7788 26.5283 40.6024 26.4527C41.4259 26.3772 42.2547 26.5244 43.0018 26.8791C43.7489 27.2337 44.387 27.7827 44.8492 28.4685C45.3114 29.1543 45.5807 29.9518 45.6289 30.7774C45.6771 31.603 45.5025 32.4264 45.1234 33.1614C44.7442 33.8964 44.1744 34.5159 43.4736 34.9551C42.7729 35.3944 41.9669 35.6371 41.1402 35.658L41.1355 35.6557Z" fill="#404040"/>
<path d="M54.5172 7.5938C53.67 6.26135 52.4995 5.16489 51.1147 4.40647C49.7298 3.64805 48.1756 3.25232 46.5967 3.25613H35.5425C33.9644 3.25639 32.4119 3.65399 31.0279 4.41226C29.644 5.17053 28.4732 6.26506 27.6237 7.59491C26.7741 8.92477 26.2731 10.4471 26.1667 12.0216C26.0604 13.5961 26.3523 15.172 27.0153 16.604L29.9658 22.9728C29.295 23.8922 28.7405 24.8911 28.315 25.9466C28.2343 26.1608 28.2407 26.3981 28.3329 26.6077C28.4251 26.8172 28.5957 26.9822 28.8082 27.0674C29.0207 27.1526 29.2581 27.1511 29.4695 27.0633C29.6809 26.9755 29.8494 26.8083 29.939 26.5976C30.3593 25.5526 30.924 24.5716 31.6167 23.6833C31.6263 23.6721 31.6352 23.6604 31.6435 23.6483C32.4178 22.661 33.344 21.8029 34.3875 21.1061C34.3945 21.1061 34.398 21.0968 34.405 21.0945C35.7349 20.2176 37.2268 19.6156 38.7929 19.3241C40.3589 19.0325 41.9675 19.0572 43.5239 19.3967C45.0802 19.7362 46.5529 20.3837 47.8553 21.301C49.1577 22.2183 50.2633 23.3868 51.1072 24.7379C51.9511 26.089 52.5162 27.5952 52.7691 29.168C53.0221 30.7408 52.9578 32.3482 52.5801 33.8958C52.2024 35.4433 51.519 36.8997 50.5699 38.1791C49.6208 39.4585 48.4254 40.5351 47.054 41.3455H41.0667C40.8346 41.3455 40.612 41.4376 40.4479 41.6017C40.2838 41.7658 40.1917 41.9884 40.1917 42.2205C40.1917 42.4525 40.2838 42.6751 40.4479 42.8392C40.612 43.0033 40.8346 43.0955 41.0667 43.0955H47.2838C47.4342 43.0942 47.5817 43.054 47.712 42.9788C49.393 42.04 50.8564 40.7562 52.0061 39.2116C53.1558 37.6671 53.9657 35.8968 54.3826 34.0171C54.7995 32.1374 54.8141 30.1907 54.4253 28.3049C54.0365 26.4192 53.2531 24.637 52.1267 23.0755L55.125 16.6028C55.7916 15.1717 56.0855 13.5953 55.9792 12.0202C55.873 10.445 55.37 8.92234 54.5172 7.5938ZM53.5372 15.8678L50.8888 21.5845C50.3619 21.0377 49.7906 20.5355 49.1808 20.083L51.5573 14.9496C51.9432 14.1168 52.113 13.2001 52.0512 12.2843C51.9894 11.3685 51.6978 10.483 51.2035 9.70962C50.7092 8.93619 50.0281 8.29974 49.2229 7.85899C48.4178 7.41825 47.5145 7.18741 46.5967 7.1878H45.5C45.2679 7.1878 45.0454 7.27998 44.8813 7.44408C44.7172 7.60817 44.625 7.83073 44.625 8.0628C44.625 8.29486 44.7172 8.51742 44.8813 8.68152C45.0454 8.84561 45.2679 8.9378 45.5 8.9378H46.5932C47.2174 8.93727 47.8317 9.09407 48.3794 9.39371C48.927 9.69335 49.3903 10.1262 49.7264 10.6522C50.0626 11.1782 50.2607 11.7805 50.3026 12.4033C50.3445 13.0262 50.2287 13.6495 49.966 14.2158L47.7027 19.11C45.6758 17.9715 43.3921 17.3686 41.0674 17.3582C38.7427 17.3478 36.4537 17.9302 34.4167 19.0505L32.1767 14.2158C31.914 13.6496 31.7982 13.0264 31.84 12.4036C31.8818 11.7809 32.0799 11.1787 32.4159 10.6527C32.7519 10.1267 33.215 9.69386 33.7625 9.39413C34.31 9.09441 34.9242 8.93746 35.5483 8.9378H42.8878C43.1199 8.9378 43.3424 8.84561 43.5065 8.68152C43.6706 8.51742 43.7628 8.29486 43.7628 8.0628C43.7628 7.83073 43.6706 7.60817 43.5065 7.44408C43.3424 7.27998 43.1199 7.1878 42.8878 7.1878H35.5425C34.6246 7.18804 33.7216 7.41939 32.9166 7.8605C32.1117 8.30161 31.4308 8.93828 30.9367 9.71182C30.4426 10.4854 30.1512 11.3708 30.0894 12.2866C30.0276 13.2024 30.1973 14.119 30.583 14.952L32.9233 20.0025C32.3115 20.4504 31.7382 20.9487 31.2095 21.4923L28.6043 15.8666C28.064 14.7014 27.826 13.4189 27.9121 12.1374C27.9982 10.8559 28.4058 9.6167 29.0972 8.53426C29.7885 7.45182 30.7414 6.56097 31.8679 5.94394C32.9944 5.32691 34.2581 5.00358 35.5425 5.0038H46.5967C47.881 5.00359 49.1447 5.32684 50.2711 5.94372C51.3976 6.56061 52.3506 7.45126 53.0421 8.5335C53.7337 9.61574 54.1415 10.8547 54.228 12.1361C54.3145 13.4175 54.0769 14.7001 53.5372 15.8655V15.8678Z" fill="#404040"/>
</g>
<defs>
<clipPath id="clip0_123_18">
<rect width="56" height="56" fill="white"/>
</clipPath>
</defs>
</svg>
