<svg width="56" height="56" viewBox="0 0 56 56" fill="none" xmlns="http://www.w3.org/2000/svg">
<g clip-path="url(#clip0_123_60)">
<path d="M0.563177 21.9119C-0.147105 21.2565 -0.19162 20.1494 0.463864 19.4391C3.9374 15.6748 8.05897 12.7097 12.7142 10.626C17.535 8.46822 22.6778 7.37415 28 7.37415C33.3222 7.37415 38.465 8.46822 43.2857 10.626C47.9409 12.7097 52.0626 15.6748 55.536 19.4391C56.1914 20.1494 56.147 21.2566 55.4367 21.9119C55.1003 22.2223 54.6747 22.3758 54.2503 22.3758C53.7788 22.3758 53.3088 22.1865 52.9638 21.8126C46.5492 14.8611 37.4502 10.8741 28 10.8741C18.5498 10.8741 9.45077 14.8611 3.03615 21.8126C2.38066 22.5229 1.27346 22.5673 0.563177 21.9119V21.9119ZM44.9967 29.7343C45.6389 30.4566 46.7449 30.5215 47.4672 29.8793C48.1895 29.237 48.2544 28.1309 47.6122 27.4087C42.6334 21.8094 35.485 18.5981 28 18.5981C20.5149 18.5981 13.3666 21.8095 8.38787 27.4087C7.74562 28.131 7.81047 29.2371 8.53279 29.8794C8.86627 30.1758 9.28135 30.3216 9.69501 30.3216C10.1773 30.3216 10.6577 30.1233 11.0035 29.7344C15.3186 24.8815 21.5136 22.0982 28 22.0982C34.4864 22.0981 40.6814 24.8814 44.9967 29.7343ZM36.979 37.6292C37.3248 38.0594 37.8321 38.283 38.344 38.283C38.7288 38.283 39.1161 38.1566 39.4393 37.8969C40.1926 37.2914 40.3125 36.1899 39.707 35.4365C36.839 31.8684 32.572 29.8219 28 29.8219C23.428 29.8219 19.1611 31.8684 16.2929 35.4365C15.6874 36.1898 15.8072 37.2913 16.5606 37.8969C17.314 38.5025 18.4155 38.3825 19.021 37.6292C21.2213 34.8919 24.494 33.3221 28 33.3221C31.5061 33.3219 34.7789 34.8919 36.979 37.6292V37.6292ZM28 41.0459C30.0897 41.0459 31.79 42.746 31.79 44.8359C31.79 46.9256 30.0898 48.6257 28 48.6257C25.9102 48.6257 24.2101 46.9256 24.2101 44.8359C24.2101 42.7461 25.9102 41.0459 28 41.0459ZM28 44.5459C27.8428 44.5459 27.7101 44.6787 27.7101 44.8359C27.7101 44.993 27.8428 45.1257 28 45.1257C28.1572 45.1257 28.29 44.9929 28.29 44.8359C28.2899 44.6788 28.1572 44.5459 28 44.5459Z" fill="#404040"/>
</g>
<defs>
<clipPath id="clip0_123_60">
<rect width="56" height="56" fill="white"/>
</clipPath>
</defs>
</svg>
